<svg width="16" height="16" viewBox="0 0 16 16" fill="none" xmlns="http://www.w3.org/2000/svg">
<rect width="16" height="16" rx="3" fill="#0a0a0a"/>
<circle cx="8" cy="8" r="5.5" stroke="white" stroke-width="1.5"/>
<path d="M8 4.5C9.5 4.5 10.8 4.9 11.7 5.5C12.7 6.1 13 6.9 13 7.5C13 8.1 12.7 8.9 11.7 9.5C10.8 10.1 9.5 10.5 8 10.5C6.5 10.5 5.2 10.1 4.3 9.5C3.3 8.9 3 8.1 3 7.5C3 6.9 3.3 6.1 4.3 5.5C5.2 4.9 6.5 4.5 8 4.5Z" stroke="white" stroke-width="1.5"/>
<circle cx="8" cy="7.5" r="2" stroke="white" stroke-width="1.5"/>
</svg>
